PathFileType	3	(X/Y/Z)	D:\Vicon Setup\UG\Test1\New Session\NewSession15.trc
DataRate	CameraRate	NumFrames	NumMarkers	Units	OrigDataRate	OrigDataStartFrame	OrigNumFrames
100.0	100.0	6	27	mm	100.0	272	359	
Frame#	Time	Sternum			LShoulder			RShoulder			LASIS			RASIS			RPSIS			LPSIS			RKneeLateral			RKneeMedial			RFibulaHead			RMidShank			RAnkleLateral			RAnkleMedial			RHeel			RMT5			RMT2			RToe			LKneeLateral			LKneeMedial			LFibulaHead			LMidShank			LAnkleLateral			LAnkleMedial			LHeel			LMT5			LMT2			LToe			
		X1	Y1	Z1	X2	Y2	Z2	X3	Y3	Z3	X4	Y4	Z4	X5	Y5	Z5	X6	Y6	Z6	X7	Y7	Z7	X8	Y8	Z8	X9	Y9	Z9	X10	Y10	Z10	X11	Y11	Z11	X12	Y12	Z12	X13	Y13	Z13	X14	Y14	Z14	X15	Y15	Z15	X16	Y16	Z16	X17	Y17	Z17	X18	Y18	Z18	X19	Y19	Z19	X20	Y20	Z20	X21	Y21	Z21	X22	Y22	Z22	X23	Y23	Z23	X24	Y24	Z24	X25	Y25	Z25	X26	Y26	Z26	X27	Y27	Z27	
272	2.71	-260.55603	1238.2418	-4787.4609	-61.382725	1343.4777	-4806.4917	-428.26526	1307.307	-4874.6084	-109.16512	904.58978	-4976.9258	-359.43857	939.85803	-4976.7388	-288.05212	1010.2516	-5129.9131	-157.15324	1001.1174	-5128.5479	-391.97852	493.4845	-4931.998	-268.5957	482.52716	-4897.0786	-394.66568	414.86066	-4934.5513	-289.45743	265.3425	-4959.7515	-321.6521	94.04174	-5075.6616	-247.71277	119.10599	-5019.6328	-254.36736	67.407402	-5142.1006	-372.76892	32.222759	-4930.8467	-309.18011	59.314259	-4922.3633	-312.9707	45.11898	-4879.0332	-74.429916	467.60623	-5177.4229	-201.65614	446.94772	-5171.4741	-66.221245	428.9668	-5225.1387	-144.03944	298.28534	-5315.2241	-90.190948	204.48088	-5508.8857	-170.21384	180.32996	-5469.5684	-155.29611	254.8815	-5560.3081	-57.018322	56.221661	-5530.1509	-122.28813	56.000252	-5489.3975	-128.88837	35.258148	-5475.1997
273	2.72	-262.59283	1237.2368	-4770.3682	-64.057602	1342.974	-4791.1475	-431.08057	1304.2521	-4857.6333	-110.80781	904.47919	-4957.3589	-360.34198	938.14911	-4959.7866	-290.88721	1009.3066	-5111.9614	-159.39481	999.41162	-5111.8833	-390.05069	488.68732	-4922.1558	-266.27316	475.79733	-4893.8037	-392.60626	411.13959	-4924.0015	-286.4744	262.94644	-4954.998	-320.461	94.823387	-5074.5337	-245.35487	118.08764	-5017.9502	-253.49924	67.761398	-5141.4971	-372.3736	32.489365	-4930.5352	-308.30569	58.301197	-4921.5205	-312.53183	43.28294	-4878.1636	-75.271835	461.84982	-5147.2241	-202.09535	439.08936	-5138.731	-66.853142	425.17154	-5194.6313	-143.79063	297.36823	-5289.2261	-89.19606	211.87318	-5485.4126	-169.12288	185.31723	-5447.4561	-154.8889	267.47928	-5530.5503	-57.691307	64.540604	-5520.9932	-122.0759	57.616783	-5480.4746	-128.07249	33.258884	-5468.6025
274	2.73	-264.53183	1235.8231	-4753.2441	-66.427208	1342.3597	-4775.9292	-433.77014	1300.9072	-4840.3535	-111.8064	903.54816	-4942.6079	-361.28125	936.1983	-4943.334	-293.41	1007.4205	-5096.2964	-161.39995	997.43781	-5095.8896	-389.8616	486.05075	-4907.3765	-264.3183	474.13229	-4887.3613	-390.4726	408.36652	-4912.1499	-283.88965	261.62082	-4949.4385	-319.59332	96.326134	-5073.0708	-243.50049	117.6878	-5016.0254	-252.84901	69.315849	-5140.5562	-372.07773	32.558998	-4930.2412	-307.55737	57.540302	-4920.6006	-312.49454	42.533215	-4877.4712	-75.944016	455.92032	-5115.2949	-203.1765	432.27203	-5105.6626	-67.469238	421.35522	-5162.5439	-144.08235	296.70334	-5261.1787	-91.227409	215.4313	-5467.4219	-168.68832	190.47676	-5422.5742	-155.2197	279.2753	-5497.5879	-58.816875	75.308655	-5507.6416	-121.64697	63.370556	-5466.3965	-127.9333	31.724415	-5461.1372
275	2.74	-266.06717	1234.0525	-4736.2202	-68.602417	1341.4995	-4760.6777	-436.26138	1297.319	-4822.6943	-112.74372	902.66388	-4925.5542	-363.69165	933.95471	-4925.4204	-295.05154	1005.3675	-5080.8979	-162.83574	995.20538	-5080.3638	-390.11697	484.90811	-4892.0928	-262.3587	475.07214	-4879.0332	-388.19476	405.66669	-4900.8892	-282.35989	260.0069	-4944.1929	-319.04449	97.602867	-5071.3789	-242.45639	117.69176	-5014.2314	-252.75049	71.271484	-5139.6509	-371.92725	32.623219	-4929.9741	-307.21262	57.117691	-4919.9507	-312.43198	41.930622	-4876.9468	-78.793274	448.82928	-5084.7886	-204.72543	427.27078	-5072.625	-68.953064	417.80939	-5126.3369	-145.17366	296.98065	-5231.625	-89.205276	227.41612	-5430.561	-169.23145	196.31476	-5396.041	-155.97987	289.47375	-5464.1782	-60.267994	83.965973	-5490.0078	-122.2878	71.693535	-5447.7051	-130.69708	33.550018	-5449.2212
276	2.75	-267.29132	1231.8823	-4719.397	-70.49514	1340.5051	-4745.4072	-438.58276	1293.9874	-4804.9678	-113.97305	901.84027	-4910.3687	-364.6152	930.31274	-4914.3564	-295.83975	1003.4102	-5065.5923	-163.47711	992.7691	-5065.1436	-389.42664	482.83533	-4879.1973	-261.63699	475.1564	-4871.9448	-386.91797	403.64368	-4890.374	-281.27747	258.58551	-4938.7251	-319.49646	98.875519	-5069.978	-242.04489	117.68755	-5012.9604	-253.26198	73.01931	-5139.0342	-371.99997	32.502823	-4929.689	-307.13876	56.69492	-4919.478	-312.39383	41.488503	-4876.5767	-78.655853	446.4024	-5044.8687	-206.36182	424.29529	-5039.6538	-69.792847	413.70679	-5091.6445	-147.13107	298.34201	-5200.7529	-90.621017	235.29713	-5401.3716	-170.85608	203.41211	-5368.3291	-156.75569	298.82175	-5432.0889	-61.738125	93.07235	-5466.0195	-123.4633	80.213707	-5423.3169	-131.55437	42.859524	-5425.1948
277	2.76	-268.11319	1229.5518	-4702.9053	-72.103165	1339.4462	-4730.0264	-440.72134	1290.6926	-4786.9336	-115.18062	900.81396	-4894.2153	-365.90143	930.19031	-4898.0967	-295.49609	1001.6555	-5050.2031	-163.43822	990.35498	-5049.9873	-388.6922	479.93982	-4869.1416	-259.67133	474.85837	-4858.5083	-385.9758	400.81064	-4881.6016	-280.80585	256.67496	-4934.0181	-320.30896	99.774849	-5068.8853	-242.09171	117.58758	-5012.0576	-254.02979	74.406754	-5138.6387	-372.27686	32.186237	-4929.4707	-307.33511	56.321346	-4919.2412	-312.45383	41.099106	-4876.4058	-79.686417	442.35257	-5009.6943	-207.76372	422.91922	-5006.8589	-70.951134	410.46167	-5056.1084	-149.6102	300.00314	-5168.6738	-93.383949	241.30841	-5376.0264	-173.27188	212.03076	-5338.6665	-157.94339	307.33237	-5402.5879	-62.706017	101.74922	-5433.5513	-125.44415	89.688316	-5389.5264	-134.17978	50.445007	-5395.9146
